<svg xmlns="http://www.w3.org/2000/svg" xmlns:xlink="http://www.w3.org/1999/xlink" width="208" height="62" viewBox="0 0 208 62">
  <defs>
    <linearGradient id="linear-gradient" x1="0.908" y1="0.048" x2="-0.383" y2="0.72" gradientUnits="objectBoundingBox">
      <stop offset="0" stop-color="#00a0ff"/>
      <stop offset="0.007" stop-color="#00a1ff"/>
      <stop offset="0.26" stop-color="#00beff"/>
      <stop offset="0.512" stop-color="#00d2ff"/>
      <stop offset="0.76" stop-color="#00dfff"/>
      <stop offset="1" stop-color="#00e3ff"/>
    </linearGradient>
    <linearGradient id="linear-gradient-2" x1="1.077" y1="0.494" x2="-1.307" y2="0.494" gradientUnits="objectBoundingBox">
      <stop offset="0" stop-color="#ffe000"/>
      <stop offset="0.409" stop-color="#ffbd00"/>
      <stop offset="0.775" stop-color="orange"/>
      <stop offset="1" stop-color="#ff9c00"/>
    </linearGradient>
    <linearGradient id="linear-gradient-3" x1="0.864" y1="0.178" x2="-0.499" y2="1.944" gradientUnits="objectBoundingBox">
      <stop offset="0" stop-color="#ff3a44"/>
      <stop offset="1" stop-color="#c31162"/>
    </linearGradient>
    <linearGradient id="linear-gradient-4" x1="-0.186" y1="-0.545" x2="0.423" y2="0.247" gradientUnits="objectBoundingBox">
      <stop offset="0" stop-color="#32a071"/>
      <stop offset="0.069" stop-color="#2da771"/>
      <stop offset="0.476" stop-color="#15cf74"/>
      <stop offset="0.801" stop-color="#06e775"/>
      <stop offset="1" stop-color="#00f076"/>
    </linearGradient>
  </defs>
  <g id="google-play-badge" transform="translate(0 -1)">
    <path id="Path" d="M200.3,62H7.7A7.652,7.652,0,0,1,0,54.25V7.75A7.652,7.652,0,0,1,7.7,0H200.3A7.652,7.652,0,0,1,208,7.75v46.5A7.652,7.652,0,0,1,200.3,62Z" transform="translate(0 1)"/>
    <path id="Shape" d="M200.3,62H7.7A7.645,7.645,0,0,1,0,54.25V7.75A7.739,7.739,0,0,1,2.234,2.306,7.607,7.607,0,0,1,7.7,0H200.3a7.607,7.607,0,0,1,5.47,2.306A7.739,7.739,0,0,1,208,7.75v46.5A7.645,7.645,0,0,1,200.3,62ZM7.7,1.24A6.4,6.4,0,0,0,3.139,3.158,6.479,6.479,0,0,0,1.233,7.75v46.5a6.479,6.479,0,0,0,1.906,4.592A6.4,6.4,0,0,0,7.7,60.76H200.3a6.4,6.4,0,0,0,4.565-1.918,6.478,6.478,0,0,0,1.907-4.592V7.75a6.478,6.478,0,0,0-1.907-4.592A6.4,6.4,0,0,0,200.3,1.24Z" transform="translate(0 1)" fill="#a6a6a6"/>
    <path id="Shape-2" data-name="Shape" d="M45.618,10a4.332,4.332,0,0,1-3.345-1.452A4.872,4.872,0,0,1,40.9,5a4.873,4.873,0,0,1,1.368-3.549,4.58,4.58,0,0,1,6.691,0A4.873,4.873,0,0,1,50.333,5a4.872,4.872,0,0,1-1.369,3.548A4.33,4.33,0,0,1,45.618,10Zm0-8.871a2.953,2.953,0,0,0-2.433,1.13A4.024,4.024,0,0,0,42.121,5a3.41,3.41,0,0,0,1.065,2.741,3.5,3.5,0,0,0,2.433,1.129,2.954,2.954,0,0,0,2.434-1.129A4.029,4.029,0,0,0,49.116,5a3.413,3.413,0,0,0-1.064-2.742A3.506,3.506,0,0,0,45.618,1.129ZM4.714,10A4.33,4.33,0,0,1,1.369,8.548,4.872,4.872,0,0,1,0,5,4.873,4.873,0,0,1,1.369,1.452,4.33,4.33,0,0,1,4.714,0,3.875,3.875,0,0,1,6.538.484,3.287,3.287,0,0,1,7.907,1.613l-.76.806A2.773,2.773,0,0,0,4.714,1.291,2.951,2.951,0,0,0,2.281,2.419,3.413,3.413,0,0,0,1.217,5.161,3.41,3.41,0,0,0,2.281,7.9a3.872,3.872,0,0,0,2.434,1.13A3.232,3.232,0,0,0,7.3,7.9a2.768,2.768,0,0,0,.76-1.935H4.714V4.677H9.123v.645A4.546,4.546,0,0,1,8.059,8.548,4.332,4.332,0,0,1,4.714,10Zm48.355-.16H52.006V.161h1.368l4.41,7.581V.161H59V9.838H57.784l-4.714-7.9v7.9Zm-18.7,0H33.3V1.291H30.716V.161h6.235v1.13H34.366V9.838Zm-5.017,0H28.131V.161h1.217V9.838Zm-8.212,0H19.92V1.291H17.335V.161h6.386v1.13H21.136V9.838Zm-5.017,0H10.8V.161h5.323v1.13H12.013V4.355h3.8V5.484h-3.8V8.548h4.106v1.29Z" transform="translate(64 12)" fill="#fff"/>
    <path id="Shape-3" data-name="Shape" d="M55.78,26a6.386,6.386,0,0,1-5.839-3.847L52.4,21.077a3.4,3.4,0,0,0,3.226,2.308c2.213,0,3.534-1.438,3.534-3.847v-.923h-.154a4.441,4.441,0,0,1-3.38,1.538,6.208,6.208,0,0,1-4.417-1.846,6.477,6.477,0,0,1-1.883-4.615A6.666,6.666,0,0,1,51.267,9a6.206,6.206,0,0,1,4.36-1.923,5.057,5.057,0,0,1,3.534,1.539V7.538h2.766V19.231A6.972,6.972,0,0,1,60.121,24.4,6.025,6.025,0,0,1,55.78,26Zm0-16.308a3.813,3.813,0,0,0-3.688,4,3.812,3.812,0,0,0,3.688,4,3.7,3.7,0,0,0,3.534-4A3.705,3.705,0,0,0,55.78,9.692Zm66.383,16h-2.92l2.92-6.461L117.092,7.538h3.074l3.38,8.308h.154l3.227-8.308H130l-7.836,18.153ZM74.681,20.462a6.344,6.344,0,0,1-4.61-1.923,6.7,6.7,0,0,1-1.844-4.692,6.842,6.842,0,0,1,1.805-4.808,5.888,5.888,0,0,1,9.873,2.346l.307.769-8.759,3.693a3.328,3.328,0,0,0,3.227,2A3.7,3.7,0,0,0,77.908,16l2.152,1.538A6.278,6.278,0,0,1,74.681,20.462ZM74.373,9.692a3.369,3.369,0,0,0-2.209,1,3.868,3.868,0,0,0-1.172,2.847l5.839-2.461A2.715,2.715,0,0,0,74.373,9.692ZM41.489,20.462a6.563,6.563,0,0,1-6.607-6.615,6.466,6.466,0,0,1,6.607-6.616,6.662,6.662,0,0,1,4.687,1.808A6.508,6.508,0,0,1,48.1,13.847,6.466,6.466,0,0,1,41.489,20.462Zm0-10.769a3.812,3.812,0,0,0-3.687,4,3.7,3.7,0,1,0,7.375,0A3.727,3.727,0,0,0,41.489,9.692ZM27.2,20.462a6.563,6.563,0,0,1-6.608-6.615A6.467,6.467,0,0,1,27.2,7.231a6.658,6.658,0,0,1,4.686,1.808,6.511,6.511,0,0,1,1.921,4.808A6.466,6.466,0,0,1,27.2,20.462Zm0-10.769a3.813,3.813,0,0,0-3.688,4,3.7,3.7,0,1,0,7.375,0A3.727,3.727,0,0,0,27.2,9.692ZM10.3,20.308A10.362,10.362,0,0,1,0,10.154,10.362,10.362,0,0,1,10.3,0a9.784,9.784,0,0,1,6.916,2.769l-2,2a7.55,7.55,0,0,0-5.071-2A7.114,7.114,0,0,0,5.033,4.9a7.423,7.423,0,0,0-2.113,5.25A7.47,7.47,0,0,0,4.975,15.4a7.114,7.114,0,0,0,5.167,2.135,6.8,6.8,0,0,0,5.071-2A5.871,5.871,0,0,0,16.749,12H10.142V9.23h9.527a5.806,5.806,0,0,1,.154,1.693,9.317,9.317,0,0,1-2.459,6.461A8.862,8.862,0,0,1,10.3,20.308Zm100.343-.154a5.166,5.166,0,0,1-3.3-1.173,4.056,4.056,0,0,1-1.46-3.135,3.8,3.8,0,0,1,1.729-3.192,6.742,6.742,0,0,1,3.8-1.115,6.031,6.031,0,0,1,2.92.769v-.154a2.538,2.538,0,0,0-1.018-1.807,3.4,3.4,0,0,0-2.056-.654,2.685,2.685,0,0,0-2.612,1.385L106.028,10a4.23,4.23,0,0,1,2.017-2.211,6.518,6.518,0,0,1,3.055-.712A6.359,6.359,0,0,1,115.268,8.5a5.722,5.722,0,0,1,1.978,3.962v7.385H114.48V18.308h-.154A4.327,4.327,0,0,1,110.638,20.154ZM111.56,14c-1.486,0-3.073.525-3.073,2,0,1.241,1.378,1.692,2.3,1.692a3.574,3.574,0,0,0,3.38-3.077l-.092-.037-.132-.054A5.529,5.529,0,0,0,111.56,14ZM89.279,19.846H86.36V.616h6.915a6.64,6.64,0,0,1,4.36,1.616,5.769,5.769,0,0,1,1.939,4.384A5.77,5.77,0,0,1,97.635,11a6.64,6.64,0,0,1-4.36,1.615h-4v7.23Zm0-16.615V9.846h4.149a3.489,3.489,0,0,0,3.38-3.385,3.378,3.378,0,0,0-3.38-3.23ZM66.69,19.846H63.771V.616h2.92V19.845Zm37.341,0h-2.92V.616h2.92V19.845Z" transform="translate(63 28)" fill="#fff"/>
    <g id="Group" transform="translate(15 12)">
      <path id="Path-2" data-name="Path" d="M.617,0A3.132,3.132,0,0,0,0,2.208v34.85a3.161,3.161,0,0,0,.771,2.208l.154.158L20.042,19.869v-.315Z" transform="translate(0 0.788)" fill="url(#linear-gradient)"/>
      <path id="Path-3" data-name="Path" d="M6.321,13.4,0,6.938V6.465L6.321,0l.154.158,7.554,4.415c2.158,1.262,2.158,3.312,0,4.573L6.321,13.4Z" transform="translate(19.888 13.877)" fill="url(#linear-gradient-2)"/>
      <path id="Path-4" data-name="Path" d="M25.746,6.623,19.271,0,0,19.712c.771.788,1.85.788,3.237.158L25.746,6.623" transform="translate(0.617 20.5)" fill="url(#linear-gradient-3)"/>
      <path id="Path-5" data-name="Path" d="M25.746,13.607,3.237.518C1.85-.27.771-.112,0,.676L19.271,20.23l6.475-6.623Z" transform="translate(0.617 0.27)" fill="url(#linear-gradient-4)"/>
      <path id="Path-6" data-name="Path" d="M25.592,0,3.237,12.931a2.477,2.477,0,0,1-3.083,0L0,13.088l.154.158a2.477,2.477,0,0,0,3.083,0Z" transform="translate(0.617 26.965)" opacity="0.2"/>
      <path id="Shape-4" data-name="Shape" d="M.632,19.4H.616a2.5,2.5,0,0,1-.589-1.568,3.115,3.115,0,0,0,.6,1.566ZM26.363,6.623h0l-.154-.157L33.917,2.05C34.983,1.323,35.444.72,35.458.033a2.648,2.648,0,0,1-1.541,2.175L26.363,6.623Z" transform="translate(0 20.5)" opacity="0.12"/>
      <path id="Path-7" data-name="Path" d="M3.854.714l30.063,17.5c.925.631,1.542,1.262,1.542,2.05a2.622,2.622,0,0,0-1.542-2.208L3.854.556C1.7-.705,0,.241,0,2.764v.158C0,.556,1.7-.547,3.854.714Z" transform="translate(0 0.232)" fill="#fff" opacity="0.25"/>
    </g>
  </g>
</svg>
