<svg id="download-on-the-app-store-apple" xmlns="http://www.w3.org/2000/svg" xmlns:xlink="http://www.w3.org/1999/xlink" width="208" height="63" viewBox="0 0 208 63">
  <defs>
    <linearGradient id="linear-gradient" x1="0.5" y1="1.003" x2="0.5" y2="-2.604" gradientUnits="objectBoundingBox">
      <stop offset="0" stop-color="#1a1a1a" stop-opacity="0.102"/>
      <stop offset="0.123" stop-color="#212121" stop-opacity="0.153"/>
      <stop offset="0.308" stop-color="#353535" stop-opacity="0.227"/>
      <stop offset="0.532" stop-color="#575757" stop-opacity="0.318"/>
      <stop offset="0.783" stop-color="#858585" stop-opacity="0.42"/>
      <stop offset="1" stop-color="#b3b3b3" stop-opacity="0.51"/>
    </linearGradient>
  </defs>
  <path id="Path" d="M205,53.986a6.076,6.076,0,0,1-1.729,4.255A5.839,5.839,0,0,1,199.1,60H5.911A5.964,5.964,0,0,1,0,53.986V6.022A5.972,5.972,0,0,1,5.911,0H199.1a5.845,5.845,0,0,1,4.175,1.764A6.082,6.082,0,0,1,205,6.022Z" transform="translate(2 1)" fill="#fff"/>
  <path id="Path-2" data-name="Path" d="M200.711,63H7.29A7.373,7.373,0,0,1,0,55.562V7.445A7.378,7.378,0,0,1,7.29,0H200.71A7.381,7.381,0,0,1,208,7.445V55.562A7.372,7.372,0,0,1,200.711,63Z" fill="#a6a6a6"/>
  <path id="Path-3" data-name="Path" d="M205,53.986a6.076,6.076,0,0,1-1.729,4.255A5.839,5.839,0,0,1,199.1,60H5.911A5.964,5.964,0,0,1,0,53.986V6.022A5.972,5.972,0,0,1,5.911,0H199.1a5.845,5.845,0,0,1,4.175,1.764A6.082,6.082,0,0,1,205,6.022Z" transform="translate(2 1)"/>
  <path id="Shape" d="M10.179,40c-2.583,0-4.593-2.925-6.06-5.06A25.734,25.734,0,0,1,.324,25.3c-.5-2.856-.666-7,1.335-10.523A9.573,9.573,0,0,1,9.738,9.767h.113a10.674,10.674,0,0,1,3.956,1.039,7.305,7.305,0,0,0,2.45.722,7.507,7.507,0,0,0,2.355-.708,12.475,12.475,0,0,1,4.533-1.17,5.96,5.96,0,0,1,.632.033,9.1,9.1,0,0,1,7.209,3.964h0l-.005,0a9.122,9.122,0,0,0-4.252,7.623,8.641,8.641,0,0,0,2.633,6.3A8.742,8.742,0,0,0,32,29.353a20.505,20.505,0,0,1-2.743,5.681c-1.748,2.659-3.406,4.862-6,4.9l-.143,0a6.732,6.732,0,0,1-2.9-.734,7.865,7.865,0,0,0-3.445-.829,8.331,8.331,0,0,0-3.626.858A7.482,7.482,0,0,1,10.309,40ZM16.332,9.237h0c-.128,0-.258,0-.384-.014a8.624,8.624,0,0,1,2.065-6.174A8.907,8.907,0,0,1,23.808,0a9,9,0,0,1-2.014,6.412A7.473,7.473,0,0,1,16.332,9.237Z" transform="translate(19 9)" fill="#fff"/>
  <path id="Path-4" data-name="Path" d="M103.7,0H0L40.619,63H103.7a7.381,7.381,0,0,0,7.3-7.442V7.445A7.383,7.383,0,0,0,103.7,0Z" transform="translate(97)" fill="url(#linear-gradient)"/>
  <g id="Group" transform="translate(65 26)">
    <path id="Shape-2" data-name="Shape" d="M40.172,27.467H36.907V11.152c0-1.618-.041-3.294-.121-4.98h2.87l.183,2.4H39.9a5.7,5.7,0,0,1,9.3-.595,8.6,8.6,0,0,1,1.736,5.583A8.785,8.785,0,0,1,48.9,19.67a5.915,5.915,0,0,1-4.53,2,4.511,4.511,0,0,1-4.195-2.149v7.949ZM43.8,8.54a3.358,3.358,0,0,0-2.193.826,3.845,3.845,0,0,0-1.282,2.168,4.609,4.609,0,0,0-.154,1.024v2.528a4.162,4.162,0,0,0,.982,2.792,3.238,3.238,0,0,0,2.556,1.138,3.324,3.324,0,0,0,2.871-1.465,6.657,6.657,0,0,0,1.029-3.867,6.4,6.4,0,0,0-.969-3.649A3.323,3.323,0,0,0,43.8,8.54ZM23.277,27.467H20.013V11.152c0-1.672-.041-3.348-.121-4.98h2.871l.182,2.4h.061A5.421,5.421,0,0,1,27.963,5.86,5.407,5.407,0,0,1,32.3,7.979a8.593,8.593,0,0,1,1.735,5.583A8.782,8.782,0,0,1,32,19.67a5.9,5.9,0,0,1-4.528,2,4.511,4.511,0,0,1-4.195-2.149v7.949ZM26.9,8.54a3.341,3.341,0,0,0-2.191.826,3.876,3.876,0,0,0-1.284,2.168,4.655,4.655,0,0,0-.152,1.024v2.528a4.149,4.149,0,0,0,.983,2.792,3.233,3.233,0,0,0,2.554,1.138,3.325,3.325,0,0,0,2.87-1.465,6.665,6.665,0,0,0,1.029-3.867,6.424,6.424,0,0,0-.967-3.649A3.326,3.326,0,0,0,26.9,8.54ZM89.527,21.667a6.51,6.51,0,0,1-5.154-2.21,8.252,8.252,0,0,1-1.92-5.58A8.435,8.435,0,0,1,84.432,8.11a6.787,6.787,0,0,1,5.337-2.246,6.642,6.642,0,0,1,5.2,2.213,8.149,8.149,0,0,1,1.876,5.546,8.512,8.512,0,0,1-1.935,5.737A6.828,6.828,0,0,1,89.527,21.667Zm.124-13.345a3.271,3.271,0,0,0-2.993,1.8,7.093,7.093,0,0,0-.876,3.638,6.951,6.951,0,0,0,.876,3.577,3.3,3.3,0,0,0,5.9-.031,7.014,7.014,0,0,0,.9-3.609,7,7,0,0,0-.874-3.575A3.229,3.229,0,0,0,89.651,8.321ZM62.463,21.635a9.525,9.525,0,0,1-5.276-1.31l.755-2.805a8.9,8.9,0,0,0,4.715,1.31,4.371,4.371,0,0,0,2.87-.858,2.846,2.846,0,0,0,1.031-2.29,2.993,2.993,0,0,0-.849-2.152,7.836,7.836,0,0,0-2.811-1.62,10.187,10.187,0,0,1-4.013-2.534,5.109,5.109,0,0,1-1.338-3.486,5.406,5.406,0,0,1,1.889-4.239,7.35,7.35,0,0,1,5-1.653,9.659,9.659,0,0,1,4.624,1l-.819,2.744a7.953,7.953,0,0,0-3.914-.967,3.913,3.913,0,0,0-2.7.873,2.548,2.548,0,0,0-.819,1.9,2.612,2.612,0,0,0,.939,2.057A10.569,10.569,0,0,0,64.71,9.23a10.074,10.074,0,0,1,3.868,2.555,5.446,5.446,0,0,1,1.245,3.644A5.723,5.723,0,0,1,68.012,19.8,7.9,7.9,0,0,1,62.463,21.635Zm15.487,0a3.866,3.866,0,0,1-3.023-1.218,6.127,6.127,0,0,1-1.089-4.084V8.692H71.695V6.166h2.143V3.391l3.206-1V6.166h3.6V8.7h-3.6v7.357c0,1.86.641,2.8,1.9,2.8A5.577,5.577,0,0,0,80.4,18.7l.09,2.556A7.221,7.221,0,0,1,77.95,21.632Zm38.363-.027a7.052,7.052,0,0,1-5.368-2.071A7.833,7.833,0,0,1,109,13.969a8.9,8.9,0,0,1,1.815-5.7,6.2,6.2,0,0,1,5.136-2.43,5.44,5.44,0,0,1,4.808,2.43,8.4,8.4,0,0,1,1.3,4.766,8.15,8.15,0,0,1-.119,1.526H112.14a4.477,4.477,0,0,0,1.421,3.433,4.781,4.781,0,0,0,3.2,1.058,10.56,10.56,0,0,0,3.962-.716l.512,2.336A11.973,11.973,0,0,1,116.312,21.6Zm-.607-13.44a3.076,3.076,0,0,0-2.6,1.372,5.151,5.151,0,0,0-.966,2.618l6.8,0a4.688,4.688,0,0,0-.634-2.588A2.836,2.836,0,0,0,115.706,8.165ZM3.385,21.325H0L6.56.311h4.05L17.2,21.323H13.722l-1.9-6.172H5.2L3.385,21.324ZM8.434,3.117c-.214.942-.531,2.237-.968,3.958L5.773,12.562h5.472L9.522,7.075c-.184-.566-.529-1.9-1.027-3.958Zm94.517,18.207H99.687V10.944c0-1.6-.029-3.2-.094-4.77h2.842l.12,2.9h.09a5.23,5.23,0,0,1,1.633-2.4,3.888,3.888,0,0,1,2.359-.811,5.1,5.1,0,0,1,.815.061l0,3.211a5.491,5.491,0,0,0-1-.093h-.028a3.063,3.063,0,0,0-2.661,1.342,5.194,5.194,0,0,0-.814,2.992v7.949Z" transform="translate(0.658 1.577)" fill="#fff"/>
  </g>
  <g id="Group-2" data-name="Group" transform="translate(67 9)">
    <path id="Shape-3" data-name="Shape" d="M78.457,11.354a3.234,3.234,0,0,1-2.529-1.12,4.3,4.3,0,0,1-.948-2.822c0-2.424,1.445-4.053,3.6-4.053,2.081,0,3.478,1.578,3.478,3.928a4.352,4.352,0,0,1-.989,2.932A3.365,3.365,0,0,1,78.457,11.354Zm.06-6.75c-1.137,0-1.9,1.109-1.9,2.759,0,1.606.775,2.728,1.886,2.728,1.093,0,1.886-1.161,1.886-2.76a3.192,3.192,0,0,0-.76-2.255A1.548,1.548,0,0,0,78.517,4.6Zm-14.054,6.75c-1.756,0-3.031-1.645-3.031-3.911,0-2.367,1.33-4.085,3.163-4.085A2.137,2.137,0,0,1,66.632,4.4h.032V0H68.27V9.114c0,.763.019,1.439.059,2.066H66.9l-.075-1.23h-.045A2.4,2.4,0,0,1,64.463,11.354Zm.51-6.67a1.659,1.659,0,0,0-1.406.757,3.4,3.4,0,0,0-.512,1.939c0,1.557.758,2.6,1.886,2.6a1.878,1.878,0,0,0,1.723-2.035V6.671A1.816,1.816,0,0,0,64.973,4.684Zm-9.482,6.67A2.161,2.161,0,0,1,53.278,9.1c0-1.85,1.5-2.869,4.221-2.869V6.088A1.336,1.336,0,0,0,56,4.573a3.217,3.217,0,0,0-1.886.569l-.327-1.12a4.458,4.458,0,0,1,2.479-.663c1.885,0,2.84,1.067,2.84,3.171V9.352a12.726,12.726,0,0,0,.1,1.83l-1.447,0-.116-.882H57.6A2.42,2.42,0,0,1,55.491,11.354Zm2.051-3.991c-1.827,0-2.677.491-2.677,1.545a1.059,1.059,0,0,0,1.1,1.2,1.57,1.57,0,0,0,1.576-1.561Zm-9.7,3.991a3.237,3.237,0,0,1-2.53-1.12,4.3,4.3,0,0,1-.949-2.822c0-2.424,1.445-4.053,3.6-4.053,2.081,0,3.479,1.578,3.479,3.928a4.352,4.352,0,0,1-.989,2.932A3.363,3.363,0,0,1,47.838,11.354ZM47.9,4.6C46.76,4.6,46,5.712,46,7.363c0,1.606.775,2.728,1.885,2.728,1.094,0,1.887-1.161,1.887-2.76a3.543,3.543,0,0,0-.511-1.949A1.6,1.6,0,0,0,47.9,4.6Zm-34.289,6.75a3.238,3.238,0,0,1-2.531-1.12,4.3,4.3,0,0,1-.948-2.822c0-2.424,1.446-4.053,3.6-4.053,2.081,0,3.478,1.578,3.478,3.928a4.358,4.358,0,0,1-.99,2.932A3.36,3.36,0,0,1,13.609,11.354ZM13.67,4.6c-1.138,0-1.9,1.109-1.9,2.759,0,1.606.776,2.728,1.887,2.728,1.093,0,1.886-1.161,1.886-2.76S14.772,4.6,13.67,4.6Zm86.5,6.736c-1.36,0-2.021-.877-2.021-2.681V4.793H97.091V3.516h1.054v-1.4l1.576-.5V3.515h1.766V4.793H99.721V8.515c0,.942.314,1.42.934,1.42a3.064,3.064,0,0,0,.712-.079l.045,1.293A3.4,3.4,0,0,1,100.166,11.339Zm15.756-.018c-2.218,0-3.6-1.48-3.6-3.863a4.648,4.648,0,0,1,.94-2.939,3.1,3.1,0,0,1,2.475-1.177c1.824,0,3,1.43,3,3.643a3.493,3.493,0,0,1-.055.772h-4.817a2.138,2.138,0,0,0,2.276,2.27,5.146,5.146,0,0,0,1.947-.363l.249,1.183A5.761,5.761,0,0,1,115.923,11.321Zm-.293-6.8a1.976,1.976,0,0,0-1.755,2.019h3.343a2.373,2.373,0,0,0-.427-1.476A1.422,1.422,0,0,0,115.63,4.525ZM2.348,11.274A18.351,18.351,0,0,1,0,11.147V.692A16.805,16.805,0,0,1,2.7.472h.064c3.578,0,5.469,1.778,5.469,5.141a5.61,5.61,0,0,1-1.5,4.209A6.1,6.1,0,0,1,2.348,11.274ZM2.9,1.812A5.937,5.937,0,0,0,1.6,1.922V9.87a7.291,7.291,0,0,0,1.085.047c2.483,0,3.85-1.512,3.85-4.257A4.03,4.03,0,0,0,5.61,2.808,3.558,3.558,0,0,0,2.9,1.812Zm102.421,9.369h-1.6V0h1.6V4.6h.032a2.408,2.408,0,0,1,2.172-1.247c1.519,0,2.463,1.251,2.463,3.265v4.557h-1.6V6.812c0-1.371-.49-2.066-1.456-2.066a1.623,1.623,0,0,0-1.607,1.814v4.62Zm-19.3,0H84.414V5.707c0-.759-.02-1.476-.06-2.192h1.413L85.841,4.7h.044a2.562,2.562,0,0,1,2.289-1.341A2.241,2.241,0,0,1,90,4.223a3.8,3.8,0,0,1,.688,2.367v4.589H89.081V6.78c0-1.35-.49-2.035-1.456-2.035a1.718,1.718,0,0,0-1.6,1.877V11.18Zm-53.128,0H31.287V5.707c0-.661-.019-1.378-.059-2.192h1.412L32.714,4.7h.045a2.563,2.563,0,0,1,2.29-1.339,2.235,2.235,0,0,1,1.824.866,3.792,3.792,0,0,1,.688,2.366l0,4.588h-1.6V6.78c0-1.35-.49-2.035-1.457-2.035a1.718,1.718,0,0,0-1.6,1.877V11.18Zm-10.5,0H20.9L18.777,3.516h1.65l.817,3.643c.2.879.361,1.707.49,2.461h.031c.134-.716.334-1.539.594-2.444l1.027-3.658h1.308l.982,3.58c.228.845.423,1.694.581,2.524H26.3a22.222,22.222,0,0,1,.49-2.524l.877-3.58,1.576,0-2.259,7.663H25.511l-.936-3.328c-.231-.812-.427-1.644-.58-2.474h-.031a17.679,17.679,0,0,1-.579,2.474l-1,3.328Zm19.6,0H40.379V0h1.607V11.179Z" transform="translate(1.038 0.899)" fill="#fff"/>
  </g>
</svg>
